<?xml version="1.0" encoding="UTF-8" standalone="no"?>
<svg width="200" height="200" viewBox="0 0 200 200" fill="none" xmlns="http://www.w3.org/2000/svg">
  <circle cx="100" cy="100" r="95" fill="url(#paint0_linear)" stroke="#2EB873" stroke-width="4"/>
  <path d="M100 42C88.9543 42 80 50.9543 80 62C80 73.0457 88.9543 82 100 82C111.046 82 120 73.0457 120 62C120 50.9543 111.046 42 100 42Z" fill="white"/>
  <path d="M136 94C136 94 121.5 86 100 86C78.5 86 64 94 64 94V122C64 122 78.5 130 100 130C121.5 130 136 122 136 122V94Z" fill="white"/>
  <path d="M88 148C88 148 88 158 100 158C112 158 112 148 112 148" stroke="white" stroke-width="6" stroke-linecap="round"/>
  <defs>
    <linearGradient id="paint0_linear" x1="40" y1="40" x2="160" y2="160" gradientUnits="userSpaceOnUse">
      <stop stop-color="#34D399"/>
      <stop offset="1" stop-color="#10B981"/>
    </linearGradient>
  </defs>
</svg> 